<?xml version="1.0" encoding="utf-8"?>
<!-- Generator: Adobe Illustrator 15.1.0, SVG Export Plug-In . SVG Version: 6.00 Build 0)  -->
<!DOCTYPE svg PUBLIC "-//W3C//DTD SVG 1.1//EN" "http://www.w3.org/Graphics/SVG/1.1/DTD/svg11.dtd">
<svg version="1.1" id="Layer_1" xmlns="http://www.w3.org/2000/svg" xmlns:xlink="http://www.w3.org/1999/xlink" x="0px" y="0px"
	 width="32px" height="64px" viewBox="0 0 32 64" enable-background="new 0 0 32 64" xml:space="preserve">
<g id="XMLID_13_">
	<g>
		<g id="XMLID_10_">
			<g>
				<path fill="#FFFFFF" d="M27.798,31.096l-7.517-7.516c-2.061,1.349-4.521,2.137-7.179,2.137C5.859,25.717,0,19.846,0,12.603
					C0,5.372,5.857-0.5,13.103-0.5c7.232,0,13.103,5.872,13.103,13.103c0,2.528-0.713,4.885-1.944,6.88l7.569,7.568
					c0.401,0.391,0.063,1.363-0.739,2.164l-1.127,1.131C29.158,31.146,28.188,31.482,27.798,31.096z M21.85,12.603
					c0-4.834-3.914-8.748-8.748-8.748c-4.834,0-8.761,3.914-8.761,8.748c0,4.833,3.926,8.76,8.761,8.76
					C17.936,21.362,21.85,17.436,21.85,12.603z"/>
			</g>
		</g>
	</g>
</g>
<g id="XMLID_1_">
	<g>
		<g id="XMLID_2_">
			<g>
				<path fill="#FFFFFF" d="M27.798,63.34l-7.517-7.516c-2.061,1.348-4.521,2.137-7.179,2.137C5.859,57.961,0,52.09,0,44.848
					c0-7.23,5.857-13.104,13.103-13.104c7.232,0,13.103,5.872,13.103,13.104c0,2.527-0.713,4.885-1.944,6.879l7.569,7.568
					c0.401,0.391,0.063,1.363-0.739,2.164l-1.127,1.131C29.158,63.391,28.188,63.727,27.798,63.34z M21.85,44.848
					c0-4.834-3.914-8.748-8.748-8.748c-4.834,0-8.761,3.914-8.761,8.748c0,4.832,3.926,8.76,8.761,8.76
					C17.936,53.605,21.85,49.68,21.85,44.848z"/>
			</g>
		</g>
	</g>
</g>
</svg>
